<?xml version="1.0" encoding="UTF-8" standalone="no"?><!DOCTYPE svg PUBLIC "-//W3C//DTD SVG 1.1//EN" "http://www.w3.org/Graphics/SVG/1.1/DTD/svg11.dtd"><svg width="100%" height="100%" viewBox="0 0 1600 1600" version="1.1" xmlns="http://www.w3.org/2000/svg" xmlns:xlink="http://www.w3.org/1999/xlink" xml:space="preserve" xmlns:serif="http://www.serif.com/" style="fill-rule:evenodd;clip-rule:evenodd;stroke-linecap:round;stroke-linejoin:round;stroke-miterlimit:1.5;"><g><ellipse cx="800" cy="780" rx="238" ry="232.5" style="stroke:#000;stroke-width:100px;"/><path d="M818,193c0,-5.519 -4.481,-10 -10,-10l-20,0c-5.519,0 -10,4.481 -10,10l0,114c0,5.519 4.481,10 10,10l20,0c5.519,0 10,-4.481 10,-10l0,-114Z"/><path d="M818,1293c0,-5.519 -4.481,-10 -10,-10l-20,0c-5.519,0 -10,4.481 -10,10l0,114c0,5.519 4.481,10 10,10l20,0c5.519,0 10,-4.481 10,-10l0,-114Z"/><path d="M362.159,340.053c-3.903,-3.903 -10.24,-3.903 -14.142,-0l-14.142,14.142c-3.903,3.903 -3.903,10.239 -0,14.142l80.61,80.61c3.902,3.903 10.239,3.903 14.142,0l14.142,-14.142c3.903,-3.903 3.903,-10.239 0,-14.142l-80.61,-80.61Z"/><path d="M1185.52,1171.18c-3.902,-3.903 -10.239,-3.903 -14.142,-0l-14.142,14.142c-3.903,3.902 -3.903,10.239 -0,14.142l80.61,80.61c3.903,3.903 10.24,3.903 14.142,0l14.142,-14.142c3.903,-3.903 3.903,-10.24 0,-14.142l-80.61,-80.61Z"/><path d="M442.769,1199.46c3.903,-3.903 3.903,-10.24 0,-14.142l-14.142,-14.142c-3.903,-3.903 -10.24,-3.903 -14.142,-0l-80.61,80.61c-3.903,3.902 -3.903,10.239 -0,14.142l14.142,14.142c3.902,3.903 10.239,3.903 14.142,0l80.61,-80.61Z"/><path d="M1266.12,348.211c3.903,-3.902 3.903,-10.239 0,-14.142l-14.142,-14.142c-3.902,-3.903 -10.239,-3.903 -14.142,-0l-80.61,80.61c-3.903,3.903 -3.903,10.24 -0,14.142l14.142,14.142c3.903,3.903 10.24,3.903 14.142,0l80.61,-80.61Z"/><path d="M206.948,780c-5.52,0 -10,4.481 -10,10l-0,20c-0,5.519 4.48,10 10,10l114,0c5.519,0 10,-4.481 10,-10l-0,-20c-0,-5.519 -4.481,-10 -10,-10l-114,0Z"/><path d="M1279.05,780c-5.519,0 -10,4.481 -10,10l0,20c0,5.519 4.481,10 10,10l114,0c5.52,0 10,-4.481 10,-10l0,-20c0,-5.519 -4.48,-10 -10,-10l-114,0Z"/></g></svg>