<?xml version="1.0" encoding="UTF-8" standalone="no"?>
<!DOCTYPE svg PUBLIC "-//W3C//DTD SVG 1.1//EN" "http://www.w3.org/Graphics/SVG/1.1/DTD/svg11.dtd">
<svg width="100%" height="100%" viewBox="0 0 1600 277" version="1.1" xmlns="http://www.w3.org/2000/svg" xmlns:xlink="http://www.w3.org/1999/xlink" xml:space="preserve" xmlns:serif="http://www.serif.com/" style="fill-rule:evenodd;clip-rule:evenodd;stroke-linejoin:round;stroke-miterlimit:2;">
    <g transform="matrix(3.80208,0,0,3.80208,-1346.47,-767.582)">
        <g transform="matrix(54,0,0,54,352.843,242)">
            <path d="M0.422,0.012C0.349,0.012 0.284,-0.004 0.226,-0.035C0.167,-0.066 0.122,-0.11 0.089,-0.165C0.055,-0.22 0.039,-0.281 0.039,-0.35C0.039,-0.419 0.055,-0.481 0.089,-0.536C0.122,-0.591 0.167,-0.634 0.226,-0.665C0.284,-0.696 0.349,-0.712 0.422,-0.712C0.495,-0.712 0.56,-0.696 0.618,-0.665C0.676,-0.634 0.722,-0.591 0.755,-0.536C0.788,-0.481 0.805,-0.419 0.805,-0.35C0.805,-0.281 0.788,-0.22 0.755,-0.165C0.722,-0.11 0.676,-0.066 0.618,-0.035C0.56,-0.004 0.495,0.012 0.422,0.012ZM0.422,-0.126C0.463,-0.126 0.501,-0.135 0.534,-0.155C0.567,-0.173 0.594,-0.2 0.613,-0.234C0.632,-0.268 0.641,-0.307 0.641,-0.35C0.641,-0.393 0.632,-0.432 0.613,-0.466C0.594,-0.5 0.567,-0.527 0.534,-0.546C0.501,-0.565 0.463,-0.574 0.422,-0.574C0.381,-0.574 0.343,-0.565 0.31,-0.546C0.277,-0.527 0.251,-0.5 0.232,-0.466C0.213,-0.432 0.203,-0.393 0.203,-0.35C0.203,-0.307 0.213,-0.268 0.232,-0.234C0.251,-0.2 0.277,-0.173 0.31,-0.155C0.343,-0.135 0.381,-0.126 0.422,-0.126Z" style="fill-rule:nonzero;"/>
        </g>
        <g transform="matrix(54,0,0,54,398.419,242)">
            <path d="M0.761,-0.546C0.828,-0.546 0.882,-0.526 0.922,-0.487C0.961,-0.447 0.981,-0.387 0.981,-0.308L0.981,-0L0.825,-0L0.825,-0.284C0.825,-0.327 0.816,-0.359 0.799,-0.38C0.781,-0.401 0.756,-0.411 0.723,-0.411C0.686,-0.411 0.657,-0.399 0.636,-0.376C0.615,-0.352 0.604,-0.317 0.604,-0.27L0.604,-0L0.448,-0L0.448,-0.284C0.448,-0.369 0.414,-0.411 0.346,-0.411C0.31,-0.411 0.281,-0.399 0.26,-0.376C0.239,-0.352 0.228,-0.317 0.228,-0.27L0.228,-0L0.072,-0L0.072,-0.538L0.221,-0.538L0.221,-0.476C0.241,-0.499 0.266,-0.516 0.295,-0.528C0.324,-0.54 0.355,-0.546 0.39,-0.546C0.428,-0.546 0.462,-0.539 0.493,-0.524C0.524,-0.509 0.548,-0.487 0.567,-0.458C0.589,-0.486 0.617,-0.508 0.651,-0.523C0.684,-0.538 0.721,-0.546 0.761,-0.546Z" style="fill-rule:nonzero;"/>
        </g>
        <g transform="matrix(54,0,0,54,455.389,242)">
            <path d="M0.599,-0.267C0.599,-0.265 0.598,-0.251 0.596,-0.225L0.189,-0.225C0.196,-0.192 0.214,-0.165 0.241,-0.146C0.268,-0.127 0.302,-0.117 0.343,-0.117C0.371,-0.117 0.396,-0.121 0.418,-0.13C0.439,-0.138 0.459,-0.151 0.478,-0.169L0.561,-0.079C0.51,-0.021 0.436,0.008 0.339,0.008C0.278,0.008 0.225,-0.004 0.178,-0.028C0.131,-0.051 0.095,-0.084 0.07,-0.126C0.045,-0.168 0.032,-0.216 0.032,-0.269C0.032,-0.322 0.045,-0.369 0.07,-0.412C0.094,-0.454 0.129,-0.487 0.173,-0.511C0.216,-0.534 0.265,-0.546 0.319,-0.546C0.372,-0.546 0.419,-0.535 0.462,-0.512C0.505,-0.489 0.538,-0.457 0.563,-0.415C0.587,-0.372 0.599,-0.323 0.599,-0.267ZM0.32,-0.428C0.285,-0.428 0.255,-0.418 0.231,-0.398C0.207,-0.378 0.192,-0.351 0.187,-0.316L0.452,-0.316C0.447,-0.35 0.432,-0.377 0.408,-0.398C0.384,-0.418 0.355,-0.428 0.32,-0.428Z" style="fill-rule:nonzero;"/>
        </g>
        <g transform="matrix(54,0,0,54,489.463,242)">
            <path d="M0.627,-0.538L0.627,-0.09C0.627,0.009 0.601,0.082 0.55,0.13C0.499,0.178 0.424,0.202 0.325,0.202C0.273,0.202 0.224,0.196 0.177,0.183C0.13,0.17 0.092,0.152 0.061,0.128L0.123,0.016C0.146,0.035 0.174,0.049 0.209,0.061C0.244,0.071 0.278,0.077 0.313,0.077C0.367,0.077 0.407,0.065 0.433,0.041C0.458,0.016 0.471,-0.021 0.471,-0.07L0.471,-0.093C0.43,-0.048 0.374,-0.026 0.301,-0.026C0.252,-0.026 0.207,-0.037 0.166,-0.059C0.125,-0.08 0.092,-0.111 0.068,-0.15C0.044,-0.189 0.032,-0.235 0.032,-0.286C0.032,-0.337 0.044,-0.383 0.068,-0.422C0.092,-0.461 0.125,-0.492 0.166,-0.514C0.207,-0.535 0.252,-0.546 0.301,-0.546C0.379,-0.546 0.438,-0.52 0.479,-0.469L0.479,-0.538L0.627,-0.538ZM0.332,-0.154C0.373,-0.154 0.407,-0.166 0.434,-0.191C0.46,-0.215 0.473,-0.247 0.473,-0.286C0.473,-0.325 0.46,-0.357 0.434,-0.382C0.407,-0.406 0.373,-0.418 0.332,-0.418C0.291,-0.418 0.257,-0.406 0.23,-0.382C0.203,-0.357 0.19,-0.325 0.19,-0.286C0.19,-0.247 0.203,-0.215 0.23,-0.191C0.257,-0.166 0.291,-0.154 0.332,-0.154Z" style="fill-rule:nonzero;"/>
        </g>
        <g transform="matrix(54,0,0,54,527.263,242)">
            <path d="M0.289,-0.546C0.372,-0.546 0.436,-0.526 0.481,-0.487C0.526,-0.447 0.548,-0.387 0.548,-0.307L0.548,-0L0.402,-0L0.402,-0.067C0.373,-0.017 0.318,0.008 0.238,0.008C0.197,0.008 0.161,0.001 0.131,-0.013C0.1,-0.027 0.077,-0.046 0.061,-0.071C0.045,-0.096 0.037,-0.124 0.037,-0.155C0.037,-0.205 0.056,-0.244 0.094,-0.273C0.131,-0.302 0.189,-0.316 0.268,-0.316L0.392,-0.316C0.392,-0.35 0.382,-0.376 0.361,-0.395C0.34,-0.413 0.309,-0.422 0.268,-0.422C0.239,-0.422 0.211,-0.418 0.184,-0.409C0.156,-0.4 0.132,-0.387 0.113,-0.372L0.057,-0.481C0.086,-0.502 0.122,-0.518 0.163,-0.529C0.204,-0.54 0.246,-0.546 0.289,-0.546ZM0.277,-0.097C0.304,-0.097 0.327,-0.103 0.348,-0.116C0.369,-0.128 0.383,-0.146 0.392,-0.17L0.392,-0.225L0.285,-0.225C0.221,-0.225 0.189,-0.204 0.189,-0.162C0.189,-0.142 0.197,-0.126 0.213,-0.115C0.228,-0.103 0.25,-0.097 0.277,-0.097Z" style="fill-rule:nonzero;"/>
        </g>
        <g transform="matrix(54,0,0,54,560.581,242)">
            <path d="M0.597,-0.364C0.637,-0.351 0.668,-0.33 0.691,-0.301C0.714,-0.271 0.725,-0.234 0.725,-0.191C0.725,-0.13 0.701,-0.083 0.654,-0.05C0.606,-0.017 0.536,-0 0.445,-0L0.083,-0L0.083,-0.7L0.425,-0.7C0.51,-0.7 0.576,-0.684 0.622,-0.651C0.667,-0.618 0.69,-0.574 0.69,-0.518C0.69,-0.484 0.682,-0.454 0.666,-0.427C0.649,-0.4 0.626,-0.379 0.597,-0.364ZM0.244,-0.578L0.244,-0.413L0.405,-0.413C0.445,-0.413 0.475,-0.42 0.496,-0.434C0.517,-0.448 0.527,-0.469 0.527,-0.496C0.527,-0.523 0.517,-0.544 0.496,-0.558C0.475,-0.571 0.445,-0.578 0.405,-0.578L0.244,-0.578ZM0.433,-0.122C0.476,-0.122 0.508,-0.129 0.53,-0.143C0.551,-0.157 0.562,-0.179 0.562,-0.208C0.562,-0.266 0.519,-0.295 0.433,-0.295L0.244,-0.295L0.244,-0.122L0.433,-0.122Z" style="fill:rgb(0,176,240);fill-rule:nonzero;"/>
        </g>
        <g transform="matrix(54,0,0,54,601.891,242)">
            <path d="M0.289,-0.546C0.372,-0.546 0.436,-0.526 0.481,-0.487C0.526,-0.447 0.548,-0.387 0.548,-0.307L0.548,-0L0.402,-0L0.402,-0.067C0.373,-0.017 0.318,0.008 0.238,0.008C0.197,0.008 0.161,0.001 0.131,-0.013C0.1,-0.027 0.077,-0.046 0.061,-0.071C0.045,-0.096 0.037,-0.124 0.037,-0.155C0.037,-0.205 0.056,-0.244 0.094,-0.273C0.131,-0.302 0.189,-0.316 0.268,-0.316L0.392,-0.316C0.392,-0.35 0.382,-0.376 0.361,-0.395C0.34,-0.413 0.309,-0.422 0.268,-0.422C0.239,-0.422 0.211,-0.418 0.184,-0.409C0.156,-0.4 0.132,-0.387 0.113,-0.372L0.057,-0.481C0.086,-0.502 0.122,-0.518 0.163,-0.529C0.204,-0.54 0.246,-0.546 0.289,-0.546ZM0.277,-0.097C0.304,-0.097 0.327,-0.103 0.348,-0.116C0.369,-0.128 0.383,-0.146 0.392,-0.17L0.392,-0.225L0.285,-0.225C0.221,-0.225 0.189,-0.204 0.189,-0.162C0.189,-0.142 0.197,-0.126 0.213,-0.115C0.228,-0.103 0.25,-0.097 0.277,-0.097Z" style="fill:rgb(0,176,240);fill-rule:nonzero;"/>
        </g>
        <g transform="matrix(54,0,0,54,635.533,242)">
            <path d="M0.332,0.008C0.275,0.008 0.223,-0.004 0.178,-0.028C0.132,-0.051 0.096,-0.084 0.071,-0.126C0.045,-0.168 0.032,-0.216 0.032,-0.269C0.032,-0.322 0.045,-0.37 0.071,-0.412C0.096,-0.454 0.132,-0.487 0.178,-0.511C0.223,-0.534 0.275,-0.546 0.332,-0.546C0.389,-0.546 0.438,-0.534 0.481,-0.511C0.523,-0.487 0.554,-0.453 0.573,-0.409L0.452,-0.344C0.424,-0.393 0.384,-0.418 0.331,-0.418C0.29,-0.418 0.257,-0.405 0.23,-0.378C0.203,-0.351 0.19,-0.315 0.19,-0.269C0.19,-0.223 0.203,-0.187 0.23,-0.16C0.257,-0.133 0.29,-0.12 0.331,-0.12C0.384,-0.12 0.425,-0.145 0.452,-0.194L0.573,-0.128C0.554,-0.085 0.523,-0.052 0.481,-0.028C0.438,-0.004 0.389,0.008 0.332,0.008Z" style="fill:rgb(0,176,240);fill-rule:nonzero;"/>
        </g>
        <g transform="matrix(54,0,0,54,667.231,242)">
            <path d="M0.303,-0.211L0.228,-0.137L0.228,-0L0.072,-0L0.072,-0.742L0.228,-0.742L0.228,-0.322L0.456,-0.538L0.642,-0.538L0.418,-0.31L0.662,-0L0.473,-0L0.303,-0.211Z" style="fill:rgb(0,176,240);fill-rule:nonzero;"/>
        </g>
        <g transform="matrix(54,0,0,54,702.331,242)">
            <path d="M0.614,-0.538L0.614,-0L0.466,-0L0.466,-0.064C0.445,-0.041 0.421,-0.023 0.392,-0.011C0.363,0.002 0.332,0.008 0.299,0.008C0.228,0.008 0.172,-0.012 0.131,-0.053C0.09,-0.094 0.069,-0.154 0.069,-0.234L0.069,-0.538L0.225,-0.538L0.225,-0.257C0.225,-0.17 0.261,-0.127 0.334,-0.127C0.371,-0.127 0.401,-0.139 0.424,-0.164C0.447,-0.188 0.458,-0.224 0.458,-0.272L0.458,-0.538L0.614,-0.538Z" style="fill:rgb(0,176,240);fill-rule:nonzero;"/>
        </g>
        <g transform="matrix(54,0,0,54,739.429,242)">
            <path d="M0.39,-0.546C0.44,-0.546 0.486,-0.535 0.527,-0.512C0.568,-0.489 0.6,-0.456 0.623,-0.415C0.646,-0.373 0.658,-0.324 0.658,-0.269C0.658,-0.214 0.646,-0.165 0.623,-0.124C0.6,-0.082 0.568,-0.049 0.527,-0.027C0.486,-0.003 0.44,0.008 0.39,0.008C0.321,0.008 0.267,-0.014 0.228,-0.057L0.228,0.194L0.072,0.194L0.072,-0.538L0.221,-0.538L0.221,-0.476C0.26,-0.523 0.316,-0.546 0.39,-0.546ZM0.363,-0.12C0.403,-0.12 0.436,-0.133 0.462,-0.161C0.487,-0.188 0.5,-0.224 0.5,-0.269C0.5,-0.314 0.487,-0.351 0.462,-0.378C0.436,-0.405 0.403,-0.418 0.363,-0.418C0.323,-0.418 0.29,-0.405 0.265,-0.378C0.239,-0.351 0.226,-0.314 0.226,-0.269C0.226,-0.224 0.239,-0.188 0.265,-0.161C0.29,-0.133 0.323,-0.12 0.363,-0.12Z" style="fill:rgb(0,176,240);fill-rule:nonzero;"/>
        </g>
    </g>
    <g transform="matrix(1,0,0,1,-91.8478,-68.8244)">
        <g transform="matrix(68.4375,0,0,68.4375,90,332)">
            <path d="M0.39,-0.546C0.44,-0.546 0.486,-0.535 0.527,-0.512C0.568,-0.489 0.6,-0.456 0.623,-0.415C0.646,-0.373 0.658,-0.324 0.658,-0.269C0.658,-0.214 0.646,-0.165 0.623,-0.124C0.6,-0.082 0.568,-0.049 0.527,-0.027C0.486,-0.003 0.44,0.008 0.39,0.008C0.316,0.008 0.26,-0.015 0.221,-0.062L0.221,-0L0.072,-0L0.072,-0.742L0.228,-0.742L0.228,-0.481C0.267,-0.524 0.321,-0.546 0.39,-0.546ZM0.363,-0.12C0.403,-0.12 0.436,-0.133 0.462,-0.161C0.487,-0.188 0.5,-0.224 0.5,-0.269C0.5,-0.314 0.487,-0.351 0.462,-0.378C0.436,-0.405 0.403,-0.418 0.363,-0.418C0.323,-0.418 0.29,-0.405 0.265,-0.378C0.239,-0.351 0.226,-0.314 0.226,-0.269C0.226,-0.224 0.239,-0.188 0.265,-0.161C0.29,-0.133 0.323,-0.12 0.363,-0.12Z" style="fill-rule:nonzero;"/>
        </g>
        <g transform="matrix(68.4375,0,0,68.4375,136.195,332)">
            <path d="M0.606,-0.538L0.363,0.033C0.338,0.095 0.308,0.139 0.272,0.164C0.235,0.189 0.191,0.202 0.14,0.202C0.112,0.202 0.084,0.198 0.057,0.189C0.03,0.18 0.007,0.168 -0.01,0.153L0.047,0.042C0.059,0.053 0.073,0.061 0.089,0.067C0.104,0.073 0.12,0.076 0.135,0.076C0.156,0.076 0.174,0.071 0.187,0.061C0.2,0.05 0.212,0.033 0.223,0.009L0.225,0.004L-0.008,-0.538L0.153,-0.538L0.304,-0.173L0.456,-0.538L0.606,-0.538Z" style="fill-rule:nonzero;"/>
        </g>
        <g transform="matrix(68.4375,0,0,68.4375,196.489,332)">
            <path d="M0.422,0.012C0.349,0.012 0.284,-0.004 0.226,-0.035C0.167,-0.066 0.122,-0.11 0.089,-0.165C0.055,-0.22 0.039,-0.281 0.039,-0.35C0.039,-0.419 0.055,-0.481 0.089,-0.536C0.122,-0.591 0.167,-0.634 0.226,-0.665C0.284,-0.696 0.349,-0.712 0.422,-0.712C0.495,-0.712 0.56,-0.696 0.618,-0.665C0.676,-0.634 0.722,-0.591 0.755,-0.536C0.788,-0.481 0.805,-0.419 0.805,-0.35C0.805,-0.281 0.788,-0.22 0.755,-0.165C0.722,-0.11 0.676,-0.066 0.618,-0.035C0.56,-0.004 0.495,0.012 0.422,0.012ZM0.422,-0.126C0.463,-0.126 0.501,-0.135 0.534,-0.155C0.567,-0.173 0.594,-0.2 0.613,-0.234C0.632,-0.268 0.641,-0.307 0.641,-0.35C0.641,-0.393 0.632,-0.432 0.613,-0.466C0.594,-0.5 0.567,-0.527 0.534,-0.546C0.501,-0.565 0.463,-0.574 0.422,-0.574C0.381,-0.574 0.343,-0.565 0.31,-0.546C0.277,-0.527 0.251,-0.5 0.232,-0.466C0.213,-0.432 0.203,-0.393 0.203,-0.35C0.203,-0.307 0.213,-0.268 0.232,-0.234C0.251,-0.2 0.277,-0.173 0.31,-0.155C0.343,-0.135 0.381,-0.126 0.422,-0.126Z" style="fill:rgb(0,176,240);fill-rule:nonzero;"/>
        </g>
        <g transform="matrix(68.4375,0,0,68.4375,254.25,332)">
            <path d="M0.761,-0.546C0.828,-0.546 0.882,-0.526 0.922,-0.487C0.961,-0.447 0.981,-0.387 0.981,-0.308L0.981,-0L0.825,-0L0.825,-0.284C0.825,-0.327 0.816,-0.359 0.799,-0.38C0.781,-0.401 0.756,-0.411 0.723,-0.411C0.686,-0.411 0.657,-0.399 0.636,-0.376C0.615,-0.352 0.604,-0.317 0.604,-0.27L0.604,-0L0.448,-0L0.448,-0.284C0.448,-0.369 0.414,-0.411 0.346,-0.411C0.31,-0.411 0.281,-0.399 0.26,-0.376C0.239,-0.352 0.228,-0.317 0.228,-0.27L0.228,-0L0.072,-0L0.072,-0.538L0.221,-0.538L0.221,-0.476C0.241,-0.499 0.266,-0.516 0.295,-0.528C0.324,-0.54 0.355,-0.546 0.39,-0.546C0.428,-0.546 0.462,-0.539 0.493,-0.524C0.524,-0.509 0.548,-0.487 0.567,-0.458C0.589,-0.486 0.617,-0.508 0.651,-0.523C0.684,-0.538 0.721,-0.546 0.761,-0.546Z" style="fill:rgb(0,176,240);fill-rule:nonzero;"/>
        </g>
        <g transform="matrix(68.4375,0,0,68.4375,326.452,332)">
            <path d="M0.599,-0.267C0.599,-0.265 0.598,-0.251 0.596,-0.225L0.189,-0.225C0.196,-0.192 0.214,-0.165 0.241,-0.146C0.268,-0.127 0.302,-0.117 0.343,-0.117C0.371,-0.117 0.396,-0.121 0.418,-0.13C0.439,-0.138 0.459,-0.151 0.478,-0.169L0.561,-0.079C0.51,-0.021 0.436,0.008 0.339,0.008C0.278,0.008 0.225,-0.004 0.178,-0.028C0.131,-0.051 0.095,-0.084 0.07,-0.126C0.045,-0.168 0.032,-0.216 0.032,-0.269C0.032,-0.322 0.045,-0.369 0.07,-0.412C0.094,-0.454 0.129,-0.487 0.173,-0.511C0.216,-0.534 0.265,-0.546 0.319,-0.546C0.372,-0.546 0.419,-0.535 0.462,-0.512C0.505,-0.489 0.538,-0.457 0.563,-0.415C0.587,-0.372 0.599,-0.323 0.599,-0.267ZM0.32,-0.428C0.285,-0.428 0.255,-0.418 0.231,-0.398C0.207,-0.378 0.192,-0.351 0.187,-0.316L0.452,-0.316C0.447,-0.35 0.432,-0.377 0.408,-0.398C0.384,-0.418 0.355,-0.428 0.32,-0.428Z" style="fill:rgb(0,176,240);fill-rule:nonzero;"/>
        </g>
        <g transform="matrix(68.4375,0,0,68.4375,369.636,332)">
            <path d="M0.627,-0.538L0.627,-0.09C0.627,0.009 0.601,0.082 0.55,0.13C0.499,0.178 0.424,0.202 0.325,0.202C0.273,0.202 0.224,0.196 0.177,0.183C0.13,0.17 0.092,0.152 0.061,0.128L0.123,0.016C0.146,0.035 0.174,0.049 0.209,0.061C0.244,0.071 0.278,0.077 0.313,0.077C0.367,0.077 0.407,0.065 0.433,0.041C0.458,0.016 0.471,-0.021 0.471,-0.07L0.471,-0.093C0.43,-0.048 0.374,-0.026 0.301,-0.026C0.252,-0.026 0.207,-0.037 0.166,-0.059C0.125,-0.08 0.092,-0.111 0.068,-0.15C0.044,-0.189 0.032,-0.235 0.032,-0.286C0.032,-0.337 0.044,-0.383 0.068,-0.422C0.092,-0.461 0.125,-0.492 0.166,-0.514C0.207,-0.535 0.252,-0.546 0.301,-0.546C0.379,-0.546 0.438,-0.52 0.479,-0.469L0.479,-0.538L0.627,-0.538ZM0.332,-0.154C0.373,-0.154 0.407,-0.166 0.434,-0.191C0.46,-0.215 0.473,-0.247 0.473,-0.286C0.473,-0.325 0.46,-0.357 0.434,-0.382C0.407,-0.406 0.373,-0.418 0.332,-0.418C0.291,-0.418 0.257,-0.406 0.23,-0.382C0.203,-0.357 0.19,-0.325 0.19,-0.286C0.19,-0.247 0.203,-0.215 0.23,-0.191C0.257,-0.166 0.291,-0.154 0.332,-0.154Z" style="fill:rgb(0,176,240);fill-rule:nonzero;"/>
        </g>
        <g transform="matrix(68.4375,0,0,68.4375,417.542,332)">
            <path d="M0.289,-0.546C0.372,-0.546 0.436,-0.526 0.481,-0.487C0.526,-0.447 0.548,-0.387 0.548,-0.307L0.548,-0L0.402,-0L0.402,-0.067C0.373,-0.017 0.318,0.008 0.238,0.008C0.197,0.008 0.161,0.001 0.131,-0.013C0.1,-0.027 0.077,-0.046 0.061,-0.071C0.045,-0.096 0.037,-0.124 0.037,-0.155C0.037,-0.205 0.056,-0.244 0.094,-0.273C0.131,-0.302 0.189,-0.316 0.268,-0.316L0.392,-0.316C0.392,-0.35 0.382,-0.376 0.361,-0.395C0.34,-0.413 0.309,-0.422 0.268,-0.422C0.239,-0.422 0.211,-0.418 0.184,-0.409C0.156,-0.4 0.132,-0.387 0.113,-0.372L0.057,-0.481C0.086,-0.502 0.122,-0.518 0.163,-0.529C0.204,-0.54 0.246,-0.546 0.289,-0.546ZM0.277,-0.097C0.304,-0.097 0.327,-0.103 0.348,-0.116C0.369,-0.128 0.383,-0.146 0.392,-0.17L0.392,-0.225L0.285,-0.225C0.221,-0.225 0.189,-0.204 0.189,-0.162C0.189,-0.142 0.197,-0.126 0.213,-0.115C0.228,-0.103 0.25,-0.097 0.277,-0.097Z" style="fill:rgb(0,176,240);fill-rule:nonzero;"/>
        </g>
        <g transform="matrix(68.4375,0,0,68.4375,459.768,332)">
            <path d="M0.418,0.012C0.347,0.012 0.282,-0.004 0.225,-0.035C0.167,-0.066 0.122,-0.109 0.089,-0.164C0.055,-0.219 0.039,-0.281 0.039,-0.35C0.039,-0.419 0.055,-0.482 0.089,-0.537C0.122,-0.592 0.167,-0.634 0.225,-0.666C0.282,-0.697 0.347,-0.712 0.419,-0.712C0.48,-0.712 0.535,-0.701 0.584,-0.68C0.632,-0.659 0.674,-0.628 0.707,-0.588L0.603,-0.492C0.556,-0.547 0.497,-0.574 0.427,-0.574C0.384,-0.574 0.345,-0.565 0.311,-0.546C0.277,-0.527 0.251,-0.5 0.232,-0.466C0.213,-0.432 0.203,-0.393 0.203,-0.35C0.203,-0.307 0.213,-0.268 0.232,-0.234C0.251,-0.2 0.277,-0.173 0.311,-0.155C0.345,-0.135 0.384,-0.126 0.427,-0.126C0.497,-0.126 0.556,-0.154 0.603,-0.209L0.707,-0.113C0.674,-0.072 0.632,-0.041 0.583,-0.02C0.534,0.001 0.479,0.012 0.418,0.012Z" style="fill:rgb(0,176,240);fill-rule:nonzero;"/>
        </g>
        <g transform="matrix(68.4375,0,0,68.4375,509.932,332)">
            <path d="M0.399,-0.546C0.466,-0.546 0.52,-0.526 0.561,-0.486C0.602,-0.446 0.622,-0.387 0.622,-0.308L0.622,-0L0.466,-0L0.466,-0.284C0.466,-0.327 0.457,-0.359 0.438,-0.38C0.419,-0.401 0.392,-0.411 0.357,-0.411C0.318,-0.411 0.286,-0.399 0.263,-0.375C0.24,-0.35 0.228,-0.314 0.228,-0.266L0.228,-0L0.072,-0L0.072,-0.742L0.228,-0.742L0.228,-0.482C0.249,-0.503 0.274,-0.519 0.303,-0.53C0.332,-0.541 0.364,-0.546 0.399,-0.546Z" style="fill:rgb(0,176,240);fill-rule:nonzero;"/>
        </g>
        <g transform="matrix(68.4375,0,0,68.4375,557.223,332)">
            <path d="M0.289,-0.546C0.372,-0.546 0.436,-0.526 0.481,-0.487C0.526,-0.447 0.548,-0.387 0.548,-0.307L0.548,-0L0.402,-0L0.402,-0.067C0.373,-0.017 0.318,0.008 0.238,0.008C0.197,0.008 0.161,0.001 0.131,-0.013C0.1,-0.027 0.077,-0.046 0.061,-0.071C0.045,-0.096 0.037,-0.124 0.037,-0.155C0.037,-0.205 0.056,-0.244 0.094,-0.273C0.131,-0.302 0.189,-0.316 0.268,-0.316L0.392,-0.316C0.392,-0.35 0.382,-0.376 0.361,-0.395C0.34,-0.413 0.309,-0.422 0.268,-0.422C0.239,-0.422 0.211,-0.418 0.184,-0.409C0.156,-0.4 0.132,-0.387 0.113,-0.372L0.057,-0.481C0.086,-0.502 0.122,-0.518 0.163,-0.529C0.204,-0.54 0.246,-0.546 0.289,-0.546ZM0.277,-0.097C0.304,-0.097 0.327,-0.103 0.348,-0.116C0.369,-0.128 0.383,-0.146 0.392,-0.17L0.392,-0.225L0.285,-0.225C0.221,-0.225 0.189,-0.204 0.189,-0.162C0.189,-0.142 0.197,-0.126 0.213,-0.115C0.228,-0.103 0.25,-0.097 0.277,-0.097Z" style="fill:rgb(0,176,240);fill-rule:nonzero;"/>
        </g>
        <g transform="matrix(68.4375,0,0,68.4375,599.449,332)">
            <path d="M0.419,-0.026C0.404,-0.015 0.385,-0.006 0.363,-0.001C0.34,0.005 0.317,0.008 0.292,0.008C0.228,0.008 0.179,-0.008 0.144,-0.041C0.109,-0.074 0.091,-0.122 0.091,-0.185L0.091,-0.406L0.008,-0.406L0.008,-0.526L0.091,-0.526L0.091,-0.657L0.247,-0.657L0.247,-0.526L0.381,-0.526L0.381,-0.406L0.247,-0.406L0.247,-0.187C0.247,-0.164 0.253,-0.147 0.265,-0.135C0.276,-0.122 0.293,-0.116 0.314,-0.116C0.339,-0.116 0.36,-0.123 0.377,-0.136L0.419,-0.026Z" style="fill:rgb(0,176,240);fill-rule:nonzero;"/>
        </g>
    </g>
</svg>
