<?xml version="1.0" encoding="UTF-8" standalone="no"?><!DOCTYPE svg PUBLIC "-//W3C//DTD SVG 1.1//EN" "http://www.w3.org/Graphics/SVG/1.1/DTD/svg11.dtd"><svg width="100%" height="100%" viewBox="0 0 1600 277" version="1.1" xmlns="http://www.w3.org/2000/svg" xmlns:xlink="http://www.w3.org/1999/xlink" xml:space="preserve" xmlns:serif="http://www.serif.com/" style="fill-rule:evenodd;clip-rule:evenodd;stroke-linejoin:round;stroke-miterlimit:2;"><g transform="matrix(3.80208,0,0,3.80208,-1346.47,-767.582)"><g transform="matrix(54,0,0,54,352.843,242)"><path d="M0.422,0.012c-0.073,0 -0.138,-0.016 -0.196,-0.047c-0.059,-0.031 -0.104,-0.075 -0.137,-0.13c-0.033,-0.054 -0.05,-0.116 -0.05,-0.185c0,-0.069 0.017,-0.131 0.05,-0.186c0.033,-0.054 0.078,-0.098 0.137,-0.129c0.058,-0.031 0.123,-0.047 0.196,-0.047c0.073,0 0.138,0.016 0.196,0.047c0.058,0.031 0.104,0.075 0.137,0.13c0.033,0.055 0.05,0.116 0.05,0.185c0,0.069 -0.017,0.131 -0.05,0.186c-0.033,0.055 -0.079,0.098 -0.137,0.129c-0.058,0.031 -0.123,0.047 -0.196,0.047Zm0,-0.138c0.041,0 0.079,-0.009 0.112,-0.028c0.033,-0.019 0.059,-0.046 0.079,-0.08c0.019,-0.034 0.028,-0.073 0.028,-0.116c0,-0.043 -0.009,-0.082 -0.028,-0.116c-0.019,-0.034 -0.046,-0.06 -0.079,-0.079c-0.033,-0.02 -0.071,-0.029 -0.112,-0.029c-0.041,0 -0.079,0.009 -0.112,0.029c-0.033,0.019 -0.06,0.045 -0.079,0.079c-0.019,0.034 -0.028,0.073 -0.028,0.116c-0,0.043 0.009,0.082 0.028,0.116c0.019,0.034 0.046,0.061 0.079,0.08c0.033,0.019 0.071,0.028 0.112,0.028Z" style="fill:#fff;fill-rule:nonzero;"/></g><g transform="matrix(54,0,0,54,398.419,242)"><path d="M0.761,-0.546c0.067,0 0.121,0.02 0.16,0.06c0.04,0.039 0.06,0.099 0.06,0.178l-0,0.308l-0.156,0l0,-0.284c0,-0.043 -0.009,-0.074 -0.027,-0.095c-0.017,-0.021 -0.042,-0.032 -0.075,-0.032c-0.037,0 -0.066,0.012 -0.087,0.036c-0.021,0.023 -0.032,0.058 -0.032,0.105l-0,0.27l-0.156,0l-0,-0.284c-0,-0.085 -0.034,-0.127 -0.102,-0.127c-0.036,0 -0.065,0.012 -0.086,0.036c-0.021,0.023 -0.032,0.058 -0.032,0.105l-0,0.27l-0.156,0l-0,-0.538l0.149,0l-0,0.062c0.02,-0.023 0.044,-0.04 0.073,-0.052c0.029,-0.012 0.061,-0.018 0.096,-0.018c0.038,0 0.072,0.008 0.103,0.023c0.031,0.015 0.055,0.036 0.074,0.065c0.022,-0.028 0.05,-0.05 0.084,-0.065c0.033,-0.015 0.07,-0.023 0.11,-0.023Z" style="fill:#fff;fill-rule:nonzero;"/></g><g transform="matrix(54,0,0,54,455.389,242)"><path d="M0.599,-0.267c0,0.002 -0.001,0.016 -0.003,0.042l-0.407,0c0.007,0.033 0.025,0.06 0.052,0.079c0.027,0.019 0.061,0.029 0.102,0.029c0.028,0 0.053,-0.004 0.075,-0.012c0.021,-0.009 0.041,-0.022 0.06,-0.04l0.083,0.09c-0.051,0.058 -0.125,0.087 -0.222,0.087c-0.061,0 -0.114,-0.012 -0.161,-0.035c-0.047,-0.024 -0.083,-0.057 -0.108,-0.099c-0.025,-0.042 -0.038,-0.09 -0.038,-0.143c0,-0.053 0.013,-0.1 0.038,-0.142c0.025,-0.043 0.059,-0.076 0.103,-0.099c0.043,-0.024 0.092,-0.036 0.146,-0.036c0.053,0 0.1,0.011 0.143,0.034c0.043,0.023 0.076,0.055 0.101,0.098c0.024,0.042 0.036,0.091 0.036,0.147Zm-0.279,-0.161c-0.035,0 -0.065,0.01 -0.089,0.03c-0.024,0.02 -0.039,0.047 -0.044,0.082l0.265,0c-0.005,-0.034 -0.02,-0.061 -0.044,-0.081c-0.024,-0.021 -0.053,-0.031 -0.088,-0.031Z" style="fill:#fff;fill-rule:nonzero;"/></g><g transform="matrix(54,0,0,54,489.463,242)"><path d="M0.627,-0.538l0,0.448c0,0.099 -0.026,0.172 -0.077,0.22c-0.051,0.048 -0.126,0.072 -0.225,0.072c-0.052,0 -0.101,-0.006 -0.148,-0.019c-0.047,-0.013 -0.085,-0.031 -0.116,-0.055l0.062,-0.112c0.023,0.019 0.051,0.033 0.086,0.045c0.035,0.01 0.069,0.016 0.104,0.016c0.054,0 0.094,-0.012 0.119,-0.037c0.026,-0.024 0.039,-0.061 0.039,-0.11l0,-0.023c-0.041,0.045 -0.097,0.067 -0.17,0.067c-0.049,-0 -0.095,-0.011 -0.136,-0.033c-0.041,-0.021 -0.073,-0.052 -0.097,-0.091c-0.024,-0.039 -0.036,-0.085 -0.036,-0.136c-0,-0.051 0.012,-0.097 0.036,-0.136c0.024,-0.039 0.056,-0.07 0.097,-0.091c0.041,-0.022 0.087,-0.033 0.136,-0.033c0.078,0 0.137,0.026 0.178,0.077l0,-0.069l0.148,0Zm-0.295,0.384c0.041,0 0.075,-0.012 0.101,-0.036c0.027,-0.025 0.04,-0.057 0.04,-0.096c0,-0.039 -0.013,-0.071 -0.04,-0.095c-0.026,-0.025 -0.06,-0.037 -0.101,-0.037c-0.041,0 -0.075,0.012 -0.102,0.036c-0.027,0.025 -0.04,0.057 -0.04,0.096c-0,0.039 0.013,0.071 0.04,0.096c0.027,0.024 0.061,0.036 0.102,0.036Z" style="fill:#fff;fill-rule:nonzero;"/></g><g transform="matrix(54,0,0,54,527.263,242)"><path d="M0.289,-0.546c0.083,0 0.147,0.02 0.192,0.06c0.045,0.039 0.067,0.099 0.067,0.179l0,0.307l-0.146,0l0,-0.067c-0.029,0.05 -0.084,0.075 -0.164,0.075c-0.041,0 -0.077,-0.007 -0.108,-0.021c-0.03,-0.014 -0.053,-0.033 -0.069,-0.058c-0.016,-0.025 -0.024,-0.053 -0.024,-0.084c0,-0.05 0.019,-0.089 0.057,-0.118c0.037,-0.029 0.095,-0.043 0.174,-0.043l0.124,0c0,-0.034 -0.01,-0.06 -0.031,-0.078c-0.021,-0.019 -0.052,-0.028 -0.093,-0.028c-0.029,0 -0.057,0.005 -0.085,0.014c-0.027,0.009 -0.051,0.021 -0.07,0.036l-0.056,-0.109c0.029,-0.021 0.065,-0.037 0.106,-0.048c0.041,-0.011 0.083,-0.017 0.126,-0.017Zm-0.012,0.449c0.027,0 0.05,-0.006 0.071,-0.018c0.021,-0.013 0.035,-0.031 0.044,-0.055l0,-0.055l-0.107,0c-0.064,0 -0.096,0.021 -0.096,0.063c0,0.02 0.008,0.036 0.024,0.048c0.015,0.011 0.037,0.017 0.064,0.017Z" style="fill:#fff;fill-rule:nonzero;"/></g><g transform="matrix(54,0,0,54,560.581,242)"><path d="M0.597,-0.364c0.04,0.013 0.071,0.034 0.094,0.064c0.023,0.029 0.034,0.066 0.034,0.109c0,0.061 -0.024,0.109 -0.072,0.142c-0.047,0.032 -0.117,0.049 -0.208,0.049l-0.362,-0l-0,-0.7l0.342,0c0.085,0 0.151,0.016 0.197,0.049c0.045,0.033 0.068,0.077 0.068,0.133c-0,0.034 -0.008,0.064 -0.025,0.091c-0.016,0.027 -0.039,0.048 -0.068,0.063Zm-0.353,-0.214l-0,0.165l0.161,0c0.04,0 0.07,-0.007 0.091,-0.021c0.021,-0.014 0.031,-0.035 0.031,-0.062c-0,-0.027 -0.01,-0.048 -0.031,-0.061c-0.021,-0.014 -0.051,-0.021 -0.091,-0.021l-0.161,0Zm0.189,0.456c0.043,0 0.075,-0.007 0.096,-0.021c0.022,-0.014 0.033,-0.036 0.033,-0.065c-0,-0.058 -0.043,-0.087 -0.129,-0.087l-0.189,0l-0,0.173l0.189,0Z" style="fill:#00b0f0;fill-rule:nonzero;"/></g><g transform="matrix(54,0,0,54,601.891,242)"><path d="M0.289,-0.546c0.083,0 0.147,0.02 0.192,0.06c0.045,0.039 0.067,0.099 0.067,0.179l0,0.307l-0.146,0l0,-0.067c-0.029,0.05 -0.084,0.075 -0.164,0.075c-0.041,0 -0.077,-0.007 -0.108,-0.021c-0.03,-0.014 -0.053,-0.033 -0.069,-0.058c-0.016,-0.025 -0.024,-0.053 -0.024,-0.084c0,-0.05 0.019,-0.089 0.057,-0.118c0.037,-0.029 0.095,-0.043 0.174,-0.043l0.124,0c0,-0.034 -0.01,-0.06 -0.031,-0.078c-0.021,-0.019 -0.052,-0.028 -0.093,-0.028c-0.029,0 -0.057,0.005 -0.085,0.014c-0.027,0.009 -0.051,0.021 -0.07,0.036l-0.056,-0.109c0.029,-0.021 0.065,-0.037 0.106,-0.048c0.041,-0.011 0.083,-0.017 0.126,-0.017Zm-0.012,0.449c0.027,0 0.05,-0.006 0.071,-0.018c0.021,-0.013 0.035,-0.031 0.044,-0.055l0,-0.055l-0.107,0c-0.064,0 -0.096,0.021 -0.096,0.063c0,0.02 0.008,0.036 0.024,0.048c0.015,0.011 0.037,0.017 0.064,0.017Z" style="fill:#00b0f0;fill-rule:nonzero;"/></g><g transform="matrix(54,0,0,54,635.533,242)"><path d="M0.332,0.008c-0.057,0 -0.109,-0.012 -0.155,-0.036c-0.045,-0.023 -0.081,-0.056 -0.107,-0.098c-0.025,-0.042 -0.038,-0.09 -0.038,-0.143c-0,-0.053 0.013,-0.101 0.038,-0.143c0.026,-0.042 0.062,-0.075 0.107,-0.099c0.046,-0.023 0.098,-0.035 0.155,-0.035c0.057,0 0.106,0.012 0.148,0.035c0.043,0.024 0.074,0.058 0.093,0.102l-0.121,0.065c-0.028,-0.049 -0.068,-0.074 -0.121,-0.074c-0.041,0 -0.074,0.013 -0.101,0.04c-0.027,0.027 -0.04,0.063 -0.04,0.109c0,0.046 0.013,0.082 0.04,0.109c0.027,0.027 0.06,0.04 0.101,0.04c0.053,0 0.094,-0.025 0.121,-0.074l0.121,0.066c-0.019,0.043 -0.05,0.076 -0.092,0.1c-0.043,0.024 -0.092,0.036 -0.149,0.036Z" style="fill:#00b0f0;fill-rule:nonzero;"/></g><g transform="matrix(54,0,0,54,667.231,242)"><path d="M0.303,-0.211l-0.075,0.074l0,0.137l-0.156,-0l0,-0.742l0.156,0l0,0.42l0.228,-0.216l0.186,0l-0.224,0.228l0.244,0.31l-0.189,0l-0.17,-0.211Z" style="fill:#00b0f0;fill-rule:nonzero;"/></g><g transform="matrix(54,0,0,54,702.331,242)"><path d="M0.614,-0.538l0,0.538l-0.148,-0l0,-0.064c-0.021,0.023 -0.045,0.041 -0.074,0.054c-0.029,0.012 -0.06,0.018 -0.093,0.018c-0.071,0 -0.127,-0.02 -0.168,-0.061c-0.041,-0.041 -0.062,-0.101 -0.062,-0.181l0,-0.304l0.156,0l0,0.281c0,0.087 0.036,0.13 0.109,0.13c0.037,0 0.067,-0.012 0.09,-0.037c0.023,-0.024 0.034,-0.06 0.034,-0.108l0,-0.266l0.156,0Z" style="fill:#00b0f0;fill-rule:nonzero;"/></g><g transform="matrix(54,0,0,54,739.429,242)"><path d="M0.39,-0.546c0.05,0 0.096,0.011 0.136,0.034c0.041,0.024 0.074,0.056 0.097,0.097c0.023,0.042 0.035,0.091 0.035,0.146c0,0.055 -0.012,0.104 -0.035,0.146c-0.023,0.041 -0.055,0.074 -0.097,0.097c-0.04,0.023 -0.086,0.034 -0.136,0.034c-0.069,0 -0.123,-0.022 -0.162,-0.065l0,0.251l-0.156,0l0,-0.732l0.149,0l0,0.062c0.039,-0.047 0.095,-0.07 0.169,-0.07Zm-0.027,0.426c0.04,0 0.073,-0.013 0.099,-0.04c0.025,-0.027 0.038,-0.064 0.038,-0.109c0,-0.045 -0.013,-0.081 -0.038,-0.108c-0.026,-0.027 -0.059,-0.041 -0.099,-0.041c-0.04,0 -0.073,0.014 -0.098,0.041c-0.026,0.027 -0.039,0.063 -0.039,0.108c0,0.045 0.013,0.082 0.039,0.109c0.025,0.027 0.058,0.04 0.098,0.04Z" style="fill:#00b0f0;fill-rule:nonzero;"/></g></g><g transform="matrix(1,0,0,1,-91.8478,-68.8244)"><g transform="matrix(68.4375,0,0,68.4375,90,332)"><path d="M0.39,-0.546c0.05,0 0.096,0.011 0.136,0.034c0.041,0.024 0.074,0.056 0.097,0.097c0.023,0.042 0.035,0.091 0.035,0.146c0,0.055 -0.012,0.104 -0.035,0.146c-0.023,0.041 -0.055,0.074 -0.097,0.097c-0.04,0.023 -0.086,0.034 -0.136,0.034c-0.074,0 -0.13,-0.023 -0.169,-0.07l0,0.062l-0.149,0l0,-0.742l0.156,0l0,0.261c0.039,-0.043 0.093,-0.065 0.162,-0.065Zm-0.027,0.426c0.04,0 0.073,-0.013 0.099,-0.04c0.025,-0.027 0.038,-0.064 0.038,-0.109c0,-0.045 -0.013,-0.081 -0.038,-0.108c-0.026,-0.027 -0.059,-0.041 -0.099,-0.041c-0.04,0 -0.073,0.014 -0.098,0.041c-0.026,0.027 -0.039,0.063 -0.039,0.108c0,0.045 0.013,0.082 0.039,0.109c0.025,0.027 0.058,0.04 0.098,0.04Z" style="fill:#fff;fill-rule:nonzero;"/></g><g transform="matrix(68.4375,0,0,68.4375,136.195,332)"><path d="M0.606,-0.538l-0.243,0.571c-0.025,0.062 -0.055,0.106 -0.091,0.131c-0.037,0.025 -0.081,0.038 -0.132,0.038c-0.028,0 -0.056,-0.004 -0.083,-0.013c-0.027,-0.009 -0.05,-0.021 -0.067,-0.036l0.057,-0.111c0.012,0.011 0.026,0.019 0.041,0.025c0.016,0.006 0.032,0.009 0.047,0.009c0.021,-0 0.039,-0.005 0.052,-0.016c0.013,-0.01 0.025,-0.027 0.036,-0.051l0.002,-0.005l-0.233,-0.542l0.161,0l0.151,0.365l0.152,-0.365l0.15,0Z" style="fill:#fff;fill-rule:nonzero;"/></g><g transform="matrix(68.4375,0,0,68.4375,196.489,332)"><path d="M0.422,0.012c-0.073,0 -0.138,-0.016 -0.196,-0.047c-0.059,-0.031 -0.104,-0.075 -0.137,-0.13c-0.033,-0.054 -0.05,-0.116 -0.05,-0.185c0,-0.069 0.017,-0.131 0.05,-0.186c0.033,-0.054 0.078,-0.098 0.137,-0.129c0.058,-0.031 0.123,-0.047 0.196,-0.047c0.073,0 0.138,0.016 0.196,0.047c0.058,0.031 0.104,0.075 0.137,0.13c0.033,0.055 0.05,0.116 0.05,0.185c0,0.069 -0.017,0.131 -0.05,0.186c-0.033,0.055 -0.079,0.098 -0.137,0.129c-0.058,0.031 -0.123,0.047 -0.196,0.047Zm0,-0.138c0.041,0 0.079,-0.009 0.112,-0.028c0.033,-0.019 0.059,-0.046 0.079,-0.08c0.019,-0.034 0.028,-0.073 0.028,-0.116c0,-0.043 -0.009,-0.082 -0.028,-0.116c-0.019,-0.034 -0.046,-0.06 -0.079,-0.079c-0.033,-0.02 -0.071,-0.029 -0.112,-0.029c-0.041,0 -0.079,0.009 -0.112,0.029c-0.033,0.019 -0.06,0.045 -0.079,0.079c-0.019,0.034 -0.028,0.073 -0.028,0.116c-0,0.043 0.009,0.082 0.028,0.116c0.019,0.034 0.046,0.061 0.079,0.08c0.033,0.019 0.071,0.028 0.112,0.028Z" style="fill:#00b0f0;fill-rule:nonzero;"/></g><g transform="matrix(68.4375,0,0,68.4375,254.25,332)"><path d="M0.761,-0.546c0.067,0 0.121,0.02 0.16,0.06c0.04,0.039 0.06,0.099 0.06,0.178l-0,0.308l-0.156,0l0,-0.284c0,-0.043 -0.009,-0.074 -0.027,-0.095c-0.017,-0.021 -0.042,-0.032 -0.075,-0.032c-0.037,0 -0.066,0.012 -0.087,0.036c-0.021,0.023 -0.032,0.058 -0.032,0.105l-0,0.27l-0.156,0l-0,-0.284c-0,-0.085 -0.034,-0.127 -0.102,-0.127c-0.036,0 -0.065,0.012 -0.086,0.036c-0.021,0.023 -0.032,0.058 -0.032,0.105l-0,0.27l-0.156,0l-0,-0.538l0.149,0l-0,0.062c0.02,-0.023 0.044,-0.04 0.073,-0.052c0.029,-0.012 0.061,-0.018 0.096,-0.018c0.038,0 0.072,0.008 0.103,0.023c0.031,0.015 0.055,0.036 0.074,0.065c0.022,-0.028 0.05,-0.05 0.084,-0.065c0.033,-0.015 0.07,-0.023 0.11,-0.023Z" style="fill:#00b0f0;fill-rule:nonzero;"/></g><g transform="matrix(68.4375,0,0,68.4375,326.452,332)"><path d="M0.599,-0.267c0,0.002 -0.001,0.016 -0.003,0.042l-0.407,0c0.007,0.033 0.025,0.06 0.052,0.079c0.027,0.019 0.061,0.029 0.102,0.029c0.028,0 0.053,-0.004 0.075,-0.012c0.021,-0.009 0.041,-0.022 0.06,-0.04l0.083,0.09c-0.051,0.058 -0.125,0.087 -0.222,0.087c-0.061,0 -0.114,-0.012 -0.161,-0.035c-0.047,-0.024 -0.083,-0.057 -0.108,-0.099c-0.025,-0.042 -0.038,-0.09 -0.038,-0.143c0,-0.053 0.013,-0.1 0.038,-0.142c0.025,-0.043 0.059,-0.076 0.103,-0.099c0.043,-0.024 0.092,-0.036 0.146,-0.036c0.053,0 0.1,0.011 0.143,0.034c0.043,0.023 0.076,0.055 0.101,0.098c0.024,0.042 0.036,0.091 0.036,0.147Zm-0.279,-0.161c-0.035,0 -0.065,0.01 -0.089,0.03c-0.024,0.02 -0.039,0.047 -0.044,0.082l0.265,0c-0.005,-0.034 -0.02,-0.061 -0.044,-0.081c-0.024,-0.021 -0.053,-0.031 -0.088,-0.031Z" style="fill:#00b0f0;fill-rule:nonzero;"/></g><g transform="matrix(68.4375,0,0,68.4375,369.636,332)"><path d="M0.627,-0.538l0,0.448c0,0.099 -0.026,0.172 -0.077,0.22c-0.051,0.048 -0.126,0.072 -0.225,0.072c-0.052,0 -0.101,-0.006 -0.148,-0.019c-0.047,-0.013 -0.085,-0.031 -0.116,-0.055l0.062,-0.112c0.023,0.019 0.051,0.033 0.086,0.045c0.035,0.01 0.069,0.016 0.104,0.016c0.054,0 0.094,-0.012 0.119,-0.037c0.026,-0.024 0.039,-0.061 0.039,-0.11l0,-0.023c-0.041,0.045 -0.097,0.067 -0.17,0.067c-0.049,-0 -0.095,-0.011 -0.136,-0.033c-0.041,-0.021 -0.073,-0.052 -0.097,-0.091c-0.024,-0.039 -0.036,-0.085 -0.036,-0.136c-0,-0.051 0.012,-0.097 0.036,-0.136c0.024,-0.039 0.056,-0.07 0.097,-0.091c0.041,-0.022 0.087,-0.033 0.136,-0.033c0.078,0 0.137,0.026 0.178,0.077l0,-0.069l0.148,0Zm-0.295,0.384c0.041,0 0.075,-0.012 0.101,-0.036c0.027,-0.025 0.04,-0.057 0.04,-0.096c0,-0.039 -0.013,-0.071 -0.04,-0.095c-0.026,-0.025 -0.06,-0.037 -0.101,-0.037c-0.041,0 -0.075,0.012 -0.102,0.036c-0.027,0.025 -0.04,0.057 -0.04,0.096c-0,0.039 0.013,0.071 0.04,0.096c0.027,0.024 0.061,0.036 0.102,0.036Z" style="fill:#00b0f0;fill-rule:nonzero;"/></g><g transform="matrix(68.4375,0,0,68.4375,417.542,332)"><path d="M0.289,-0.546c0.083,0 0.147,0.02 0.192,0.06c0.045,0.039 0.067,0.099 0.067,0.179l0,0.307l-0.146,0l0,-0.067c-0.029,0.05 -0.084,0.075 -0.164,0.075c-0.041,0 -0.077,-0.007 -0.108,-0.021c-0.03,-0.014 -0.053,-0.033 -0.069,-0.058c-0.016,-0.025 -0.024,-0.053 -0.024,-0.084c0,-0.05 0.019,-0.089 0.057,-0.118c0.037,-0.029 0.095,-0.043 0.174,-0.043l0.124,0c0,-0.034 -0.01,-0.06 -0.031,-0.078c-0.021,-0.019 -0.052,-0.028 -0.093,-0.028c-0.029,0 -0.057,0.005 -0.085,0.014c-0.027,0.009 -0.051,0.021 -0.07,0.036l-0.056,-0.109c0.029,-0.021 0.065,-0.037 0.106,-0.048c0.041,-0.011 0.083,-0.017 0.126,-0.017Zm-0.012,0.449c0.027,0 0.05,-0.006 0.071,-0.018c0.021,-0.013 0.035,-0.031 0.044,-0.055l0,-0.055l-0.107,0c-0.064,0 -0.096,0.021 -0.096,0.063c0,0.02 0.008,0.036 0.024,0.048c0.015,0.011 0.037,0.017 0.064,0.017Z" style="fill:#00b0f0;fill-rule:nonzero;"/></g><g transform="matrix(68.4375,0,0,68.4375,459.768,332)"><path d="M0.418,0.012c-0.071,0 -0.136,-0.016 -0.193,-0.047c-0.058,-0.031 -0.103,-0.074 -0.136,-0.129c-0.033,-0.054 -0.05,-0.117 -0.05,-0.186c0,-0.069 0.017,-0.132 0.05,-0.187c0.033,-0.055 0.078,-0.098 0.136,-0.129c0.057,-0.031 0.122,-0.046 0.194,-0.046c0.061,-0 0.115,0.011 0.165,0.032c0.048,0.021 0.09,0.052 0.123,0.092l-0.104,0.096c-0.047,-0.055 -0.106,-0.082 -0.176,-0.082c-0.043,-0 -0.082,0.009 -0.116,0.028c-0.034,0.019 -0.061,0.046 -0.079,0.08c-0.019,0.034 -0.029,0.073 -0.029,0.116c0,0.043 0.01,0.082 0.029,0.116c0.019,0.034 0.045,0.06 0.079,0.079c0.034,0.019 0.073,0.029 0.116,0.029c0.07,-0 0.129,-0.028 0.176,-0.083l0.104,0.096c-0.033,0.041 -0.075,0.072 -0.124,0.093c-0.049,0.021 -0.104,0.032 -0.165,0.032Z" style="fill:#00b0f0;fill-rule:nonzero;"/></g><g transform="matrix(68.4375,0,0,68.4375,509.932,332)"><path d="M0.399,-0.546c0.067,0 0.12,0.02 0.161,0.06c0.041,0.04 0.062,0.099 0.062,0.178l-0,0.308l-0.156,0l-0,-0.284c-0,-0.043 -0.009,-0.074 -0.028,-0.095c-0.019,-0.021 -0.046,-0.032 -0.081,-0.032c-0.039,0 -0.071,0.012 -0.094,0.037c-0.023,0.024 -0.035,0.06 -0.035,0.108l0,0.266l-0.156,0l0,-0.742l0.156,0l0,0.26c0.021,-0.021 0.046,-0.036 0.075,-0.047c0.029,-0.011 0.061,-0.017 0.096,-0.017Z" style="fill:#00b0f0;fill-rule:nonzero;"/></g><g transform="matrix(68.4375,0,0,68.4375,557.223,332)"><path d="M0.289,-0.546c0.083,0 0.147,0.02 0.192,0.06c0.045,0.039 0.067,0.099 0.067,0.179l0,0.307l-0.146,0l0,-0.067c-0.029,0.05 -0.084,0.075 -0.164,0.075c-0.041,0 -0.077,-0.007 -0.108,-0.021c-0.03,-0.014 -0.053,-0.033 -0.069,-0.058c-0.016,-0.025 -0.024,-0.053 -0.024,-0.084c0,-0.05 0.019,-0.089 0.057,-0.118c0.037,-0.029 0.095,-0.043 0.174,-0.043l0.124,0c0,-0.034 -0.01,-0.06 -0.031,-0.078c-0.021,-0.019 -0.052,-0.028 -0.093,-0.028c-0.029,0 -0.057,0.005 -0.085,0.014c-0.027,0.009 -0.051,0.021 -0.07,0.036l-0.056,-0.109c0.029,-0.021 0.065,-0.037 0.106,-0.048c0.041,-0.011 0.083,-0.017 0.126,-0.017Zm-0.012,0.449c0.027,0 0.05,-0.006 0.071,-0.018c0.021,-0.013 0.035,-0.031 0.044,-0.055l0,-0.055l-0.107,0c-0.064,0 -0.096,0.021 -0.096,0.063c0,0.02 0.008,0.036 0.024,0.048c0.015,0.011 0.037,0.017 0.064,0.017Z" style="fill:#00b0f0;fill-rule:nonzero;"/></g><g transform="matrix(68.4375,0,0,68.4375,599.449,332)"><path d="M0.419,-0.026c-0.015,0.011 -0.034,0.02 -0.056,0.026c-0.023,0.005 -0.046,0.008 -0.071,0.008c-0.064,0 -0.113,-0.016 -0.148,-0.049c-0.035,-0.033 -0.053,-0.081 -0.053,-0.144l0,-0.221l-0.083,0l0,-0.12l0.083,0l0,-0.131l0.156,0l0,0.131l0.134,0l0,0.12l-0.134,0l0,0.219c0,0.023 0.006,0.04 0.018,0.053c0.011,0.012 0.028,0.018 0.049,0.018c0.025,0 0.046,-0.007 0.063,-0.02l0.042,0.11Z" style="fill:#00b0f0;fill-rule:nonzero;"/></g></g></svg>